<?xml version="1.0" encoding="UTF-8"?>
<svg width="198px" height="204px" viewBox="0 0 198 204" version="1.1" xmlns="http://www.w3.org/2000/svg" xmlns:xlink="http://www.w3.org/1999/xlink">
    <title>Group</title>
    <g id="Page-1" stroke="none" stroke-width="1" fill="none" fill-rule="evenodd">
        <g id="Group">
            <path d="M0,118.54 C0,165.4 44.17,203.38 98.67,203.41 L98.67,33.68 C44.17,33.7 0,71.68 0,118.54" id="Fill-1099" fill="#C04032"></path>
            <path d="M98.73,33.68 C98.71,33.68 98.689,33.68 98.67,33.68 L98.67,203.41 C98.689,203.41 98.71,203.41 98.73,203.41 C153.249,203.41 197.45,165.42 197.45,118.54 C197.45,71.67 153.249,33.68 98.73,33.68" id="Fill-1100" fill="#AD352B"></path>
            <path d="M97.7,21.2 C85.42,14.2 62.12,6.39 62.12,6.39 C62.12,6.39 70.01,20.52 78.32,29.93 C61.57,31.41 38.16,36.82 38.16,36.82 C38.16,36.82 60.029,43.24 76.49,45.7 C68.27,55.26 60.43,70.52 60.43,70.52 C60.43,70.52 80.97,63.12 93.33,56.16 C94.5,60.86 96.54,66.2 98.67,71.13 L98.67,19.15 C98.34,19.84 97.98,20.54 97.7,21.2" id="Fill-1101" fill="#189893"></path>
            <path d="M174.589,39.54 C174.589,39.54 151.17,34.15 134.43,32.66 C142.74,23.25 150.6,9.11 150.6,9.11 C150.6,9.11 131.3,15.6 118.59,22.04 C116.88,12.59 110.93,0 110.93,0 C110.93,0 102.919,10.35 98.67,19.15 L98.67,71.13 C102.56,80.12 106.79,87.77 106.79,87.77 C106.79,87.77 115.71,71.89 119.57,58.98 C131.92,65.9 152.33,73.24 152.33,73.24 C152.33,73.24 144.46,57.99 136.27,48.44 C152.72,45.95 174.589,39.54 174.589,39.54" id="Fill-1102" fill="#13847C"></path>
            <path d="M33.68,167.92 C20.86,155.54 13.15,139.51 13.15,121.98 C13.15,118.46 13.47,115 14.1,111.64 C15.13,105.95 20.96,101.75 25.99,102.23 C31.04,102.71 32.79,108.31 31.41,114.81 C30.6,118.67 30.16,122.65 30.16,126.73 C30.16,141.38 35.58,154.98 44.85,166.26 C60.11,184.87 54.53,188.05 33.68,167.92 Z M28.48,79.27 C35.06,69.72 45.75,63.68 49.69,63.89 C53.62,64.12 50.43,70.02 44.73,78.42 C39.01,86.84 32.35,94.73 27.58,95.6 C22.8,96.49 21.919,88.83 28.48,79.27 L28.48,79.27 Z" id="Fill-1103" fill="#FFFFFE"></path>
        </g>
    </g>
</svg>
